<?xml version="1.0" encoding="UTF-8" standalone="no"?>
<!DOCTYPE svg PUBLIC "-//W3C//DTD SVG 1.1//EN" "http://www.w3.org/Graphics/SVG/1.1/DTD/svg11.dtd">
<svg xmlns="http://www.w3.org/2000/svg" version="1.1" viewBox="0 0 512 512">
<path fill="#ffffff" d="
  M 474.41 132.09
  Q 491.88 148.51 508.71 164.44
  Q 510.29 165.94 508.12 166.16
  L 393.64 177.86
  A 1.01 0.97 62.7 0 1 392.85 177.59
  L 266.72 58.03
  Q 265.14 56.54 267.31 56.31
  L 380.78 44.72
  A 1.05 1.02 63.2 0 1 381.57 44.99
  Q 428.05 88.52 474.41 132.09
  Z"
/>
<path fill="#ffffff" d="
  M 16.07 196.35
  Q 58.95 135.42 102.50 73.52
  A 1.03 1.00 13.9 0 1 103.22 73.10
  L 216.79 61.50
  Q 218.96 61.27 217.71 63.06
  L 118.36 205.71
  A 1.01 1.00 14.0 0 1 117.64 206.14
  Q 60.66 211.83 3.76 217.77
  Q 2.74 217.87 2.10 218.14
  A 0.52 0.51 71.6 0 1 1.41 217.79
  C 1.30 217.36 11.45 202.92 16.07 196.35
  Z"
/>
<path fill="#ffffff" d="
  M 360.24 175.81
  Q 362.16 177.54 363.93 179.31
  Q 365.42 180.80 363.32 181.02
  Q 256.71 191.82 150.75 202.72
  Q 148.50 202.95 147.08 203.38
  A 0.50 0.50 0.0 0 1 146.46 203.08
  Q 146.29 202.68 146.55 202.31
  Q 194.24 133.82 241.95 65.36
  A 1.00 1.00 0.0 0 1 243.46 65.20
  Q 299.57 118.24 355.49 171.48
  Q 356.45 172.39 360.24 175.81
  Z"
/>
<path fill="#ffffff" d="
  M 397.10 199.48
  A 1.01 0.99 -83.1 0 1 397.95 198.80
  L 508.67 187.48
  Q 510.98 187.24 509.56 189.08
  L 319.55 434.95
  Q 316.64 438.71 318.16 434.21
  L 397.10 199.48
  Z"
/>
<path fill="#ffffff" d="
  M 374.08 201.73
  L 284.15 468.55
  A 0.31 0.31 0.0 0 1 283.59 468.61
  L 141.84 225.32
  A 0.31 0.31 0.0 0 1 142.08 224.86
  L 373.76 201.33
  A 0.31 0.31 0.0 0 1 374.08 201.73
  Z"
/>
<path fill="#ffffff" d="
  M 25.32 256.95
  Q 15.81 248.80 6.47 240.48
  Q 4.77 238.97 7.03 238.74
  L 117.76 227.43
  A 1.01 1.00 71.5 0 1 118.73 227.92
  C 129.36 246.13 245.71 444.99 245.48 445.33
  A 0.28 0.19 38.8 0 1 245.12 445.30
  Q 135.22 351.12 25.32 256.95
  Z"
/>
</svg>
